<svg id="Layer_1" fill="current" stroke="current" enable-background="new 0 0 512 512" height="25" viewBox="0 0 512 512" width="25" xmlns="http://www.w3.org/2000/svg"><g><path d="m92 113.2c-12.1 13-21.1 28.5-26.5 45.4-2.8 9-5.4 18.1-7.7 27.3l34.5 2c.7-4.2 2.7-8 5.8-10.8-3.8-3.5-6-8.5-6-13.7v-50.2z"/><path d="m23.3 474.6 49.2 2.6 5.3-28.2-52.1-3z"/><path d="m102 279v60.8c0 4.8 3.9 8.7 8.7 8.7h140.2v-78.3h-140.2c-4.8.1-8.7 4-8.7 8.8z"/><path d="m250.9 182h-140.2c-4.8 0-8.7 3.9-8.7 8.7v60.8c0 4.8 3.9 8.7 8.7 8.7h140.2z"/><path d="m21.8 435.8 63.8 3.7 6.4-20.4v-39.8l-62.4-3.6z"/><path d="m92 197.8-36.6-2.1c-3.6 15.6-6.4 31.3-8.5 47.1l-4.3 33 49.4 2.9c.1-5.1 2.3-9.9 6-13.4-3.8-3.5-6-8.5-6-13.7z"/><path d="m92 288.7-50.7-2.9-10.4 80 61 3.5v-2c0-5.2 2.2-10.2 6-13.7-3.8-3.5-6-8.5-6-13.7v-51.2z"/><path d="m110.7 172h140.2v-48.4l-65.6-47.6c-1.3-.9-2.1-2.4-2.1-4v-7.8c-23.2 5-45.9 12.3-67.6 21.8l-9.6 4.2c-2.5 1.1-4.1 3.5-4.1 6.2v66.9c.1 4.8 4 8.7 8.8 8.7z"/><path d="m469.2 275.8-4.3-33c-2-15.8-4.9-31.6-8.5-47.1l-36.6 2.1v53.7c0 5.2-2.2 10.2-6 13.7 3.7 3.5 5.9 8.3 6 13.4z"/><path d="m454 185.8c-2.3-9.2-4.9-18.3-7.7-27.3-5.3-16.9-14.4-32.4-26.5-45.3v50.1c0 5.2-2.2 10.2-6 13.7 3.1 2.9 5.1 6.7 5.8 10.8z"/><path d="m309.1 26h-106.4l53.2 41.6z"/><path d="m250.9 76.4-57.7-45.1v38.2l57.7 41.8z"/><path d="m260.9 111.3 57.7-41.8v-38.2l-57.7 45.1z"/><path d="m250.9 358.6h-140.2c-4.8 0-8.7 3.9-8.7 8.7v60.8c0 4.8 3.9 8.7 8.7 8.7h140.2z"/><path d="m401.1 182h-140.2v78.3h140.2c4.8 0 8.7-3.9 8.7-8.7v-60.8c0-4.9-3.9-8.8-8.7-8.8z"/><path d="m401.1 270.3h-140.2v78.3h140.2c4.8 0 8.7-3.9 8.7-8.7v-60.9c0-4.8-3.9-8.7-8.7-8.7z"/><path d="m405.8 90.2-9.6-4.2c-21.7-9.5-44.4-16.8-67.6-21.7v7.7c0 1.6-.8 3.1-2.1 4l-65.6 47.6v48.4h140.2c4.8 0 8.7-3.9 8.7-8.7v-66.9c0-2.7-1.6-5.1-4-6.2z"/><path d="m114.8 486h282.2v-39.1h-282.2zm257.5-24.9c0-2.8 2.2-5 5-5s5 2.2 5 5v9.8c0 2.8-2.2 5-5 5s-5-2.2-5-5zm-27 0c0-2.8 2.2-5 5-5s5 2.2 5 5v9.8c0 2.8-2.2 5-5 5s-5-2.2-5-5zm-27 0c0-2.8 2.2-5 5-5s5 2.2 5 5v9.8c0 2.8-2.2 5-5 5s-5-2.2-5-5zm-26.9 0c0-2.8 2.2-5 5-5s5 2.2 5 5v9.8c0 2.8-2.2 5-5 5s-5-2.2-5-5zm-27 0c0-2.8 2.2-5 5-5s5 2.2 5 5v9.8c0 2.8-2.2 5-5 5s-5-2.2-5-5zm-27 0c0-2.8 2.2-5 5-5s5 2.2 5 5v9.8c0 2.8-2.2 5-5 5s-5-2.2-5-5zm-27 0c0-2.8 2.2-5 5-5s5 2.2 5 5v9.8c0 2.8-2.2 5-5 5s-5-2.2-5-5zm-27 0c0-2.8 2.2-5 5-5s5 2.2 5 5v9.8c0 2.8-2.2 5-5 5s-5-2.2-5-5zm-27 0c0-2.8 2.2-5 5-5s5 2.2 5 5v9.8c0 2.8-2.2 5-5 5s-5-2.2-5-5zm-26.9 0c0-2.8 2.2-5 5-5s5 2.2 5 5v9.8c0 2.8-2.2 5-5 5s-5-2.2-5-5z"/><path d="m487.7 445.9-52.1 3 5.3 28.3 49.3-2.6z"/><path d="m482.1 375.7-62.3 3.6v39.8l6.4 20.4 63.7-3.7z"/><path d="m419.8 369.3 61-3.5-10.4-80-50.7 2.9v51.2c0 5.2-2.2 10.2-6 13.7 3.8 3.5 6 8.5 6 13.7v2z"/><path d="m401.1 358.6h-140.2v78.3h140.2c4.8 0 8.7-3.9 8.7-8.7v-60.8c0-4.9-3.9-8.8-8.7-8.8z"/></g></svg>