<?xml version="1.0" standalone="no"?>
<!DOCTYPE svg PUBLIC "-//W3C//DTD SVG 20010904//EN"
 "http://www.w3.org/TR/2001/REC-SVG-20010904/DTD/svg10.dtd">
<svg version="1.0" xmlns="http://www.w3.org/2000/svg"
 width="100" height="100" viewBox="0 0 921.000000 1280.000000"
 preserveAspectRatio="xMidYMid meet">
<metadata>
Created by potrace 1.15, written by Peter Selinger 2001-2017
</metadata>
<g transform="translate(0.000000,1280.000000) scale(0.100000,-0.100000)"
fill="current" stroke="current">
<path d="M5114 11985 c-3 -11 -26 -82 -52 -159 l-47 -139 -144 -46 -145 -47
121 -101 120 -102 -5 -168 c-4 -143 -3 -166 9 -157 8 7 64 50 126 96 l112 85
137 -54 c75 -30 139 -52 141 -49 3 3 -13 74 -35 157 l-41 153 89 127 c50 70
90 130 90 133 0 3 -48 6 -107 7 -60 0 -128 4 -152 7 l-45 7 -83 135 c-64 104
-85 130 -89 115z"/>
<path d="M5286 11755 c4 -8 11 -15 16 -15 6 0 5 6 -2 15 -7 8 -14 15 -16 15
-2 0 -1 -7 2 -15z"/>
<path d="M4990 11700 c-13 -8 -12 -10 3 -10 9 0 17 5 17 10 0 12 -1 12 -20 0z"/>
<path d="M4802 11220 c-444 -232 -772 -490 -868 -685 -117 -238 41 -392 493
-479 70 -13 179 -30 242 -37 l113 -12 -4 -113 c-2 -63 -2 -114 0 -114 2 0 42
30 89 67 l85 66 101 -41 c56 -23 102 -40 103 -39 2 1 -6 33 -17 71 -10 38 -16
72 -13 75 3 3 64 -2 137 -12 276 -35 415 -92 478 -194 28 -44 30 -138 5 -197
-9 -21 -16 -40 -16 -43 0 -12 98 69 160 132 71 74 120 157 120 207 0 149 -233
259 -650 308 -173 20 -164 17 -146 46 l16 24 -108 0 -109 0 -59 95 c-32 52
-61 95 -64 95 -3 0 -20 -47 -37 -103 l-33 -104 -32 5 c-225 28 -404 73 -524
132 -232 113 -230 270 9 481 135 120 389 285 605 393 66 33 84 46 65 46 -5 0
-68 -32 -141 -70z"/>
<path d="M5020 9500 l-33 -109 -106 -33 -105 -33 72 -60 c40 -32 69 -62 65
-66 -8 -7 -209 -67 -401 -118 -70 -19 -136 -31 -175 -31 l-62 0 -54 91 c-30
49 -57 92 -61 94 -4 2 -22 -44 -41 -104 l-33 -109 -104 -32 c-58 -17 -101 -35
-96 -40 5 -4 28 -24 52 -43 l42 -36 -77 -42 c-162 -88 -454 -292 -393 -274 14
4 131 53 260 107 129 55 245 104 257 108 l22 9 -6 -101 c-7 -116 -16 -114 99
-25 l77 60 101 -41 c55 -22 100 -38 100 -34 0 3 -14 55 -31 114 -43 154 -50
147 251 232 69 20 166 49 215 66 49 16 89 30 89 30 1 0 -1 -29 -2 -65 -2 -36
-1 -65 3 -65 4 0 45 29 90 65 l84 64 97 -39 c54 -22 99 -38 101 -36 2 2 -8 50
-24 106 -23 88 -25 105 -13 112 168 97 249 150 313 204 43 36 77 68 75 70 -2
2 -71 -30 -152 -71 -81 -41 -152 -75 -158 -75 -5 0 0 12 12 28 l22 27 -54 7
c-29 3 -78 6 -108 7 l-56 1 -53 90 c-29 50 -57 92 -61 95 -4 2 -22 -45 -40
-105z"/>
<path d="M3370 8459 c-94 -71 -153 -144 -171 -211 -11 -39 -10 -52 5 -92 24
-63 108 -137 213 -187 82 -39 280 -109 308 -109 11 0 15 -19 17 -75 l3 -74 71
54 72 54 96 -19 c53 -11 106 -25 116 -30 12 -6 20 -7 20 -1 0 5 15 6 38 1 20
-4 124 -21 231 -36 l194 -28 -6 -78 c-3 -43 -2 -78 2 -78 5 0 46 29 92 63 l84
64 94 -39 c52 -21 98 -38 102 -38 5 0 4 12 -1 26 -6 14 -10 28 -10 31 0 7 90
-3 324 -38 109 -16 203 -29 208 -29 6 0 9 -36 6 -90 -1 -50 -2 -90 0 -90 2 0
42 30 88 66 l85 67 97 -39 c53 -21 100 -41 105 -42 4 -2 5 8 1 22 -8 33 2 33
108 0 165 -52 278 -125 320 -208 18 -34 20 -53 16 -128 l-5 -87 65 57 c152
134 211 223 197 299 -9 54 -92 128 -213 190 -114 60 -200 92 -360 134 -65 17
-119 33 -121 35 -2 2 13 26 34 54 l37 50 -110 0 -109 0 -58 95 c-31 52 -60 95
-64 95 -3 0 -21 -49 -40 -109 -30 -98 -37 -110 -60 -114 -21 -5 -284 21 -499
49 l-43 5 36 49 c19 26 35 50 35 54 0 3 -37 6 -82 7 -124 1 -125 2 -191 109
-45 75 -59 91 -63 75 -3 -11 -20 -62 -37 -114 l-32 -94 -64 -19 c-65 -20 -65
-20 -195 2 -119 19 -255 48 -265 56 -2 2 20 35 48 73 28 39 51 73 51 76 0 2
-48 6 -107 7 l-107 3 -60 99 -61 99 -35 -114 c-35 -112 -36 -114 -71 -123 -30
-7 -46 -3 -126 37 -139 70 -180 135 -171 272 2 36 3 65 2 65 -2 0 -39 -28 -84
-61z"/>
<path d="M5460 7039 c-18 -57 -36 -109 -41 -115 -5 -6 -52 -23 -104 -39 -53
-15 -94 -31 -93 -35 2 -4 34 -34 72 -66 l70 -58 -90 -29 c-109 -35 -435 -119
-440 -114 -3 2 5 15 16 30 11 14 20 28 20 31 0 3 -48 7 -107 8 l-107 3 -55 92
c-31 51 -59 92 -62 93 -3 0 -21 -48 -40 -107 l-34 -107 -85 -28 c-47 -14 -94
-29 -104 -32 -17 -4 -13 -11 27 -43 25 -20 45 -39 43 -40 -2 -2 -117 -25 -257
-52 -140 -27 -267 -52 -283 -57 -31 -7 -30 1 1 37 12 14 9 17 -24 23 -21 3
-70 6 -109 6 l-71 0 -58 95 c-32 53 -59 94 -61 92 -2 -2 -19 -51 -37 -108
l-32 -104 -104 -34 -104 -34 53 -47 52 -46 -148 -53 c-193 -68 -373 -155 -493
-236 -104 -70 -179 -132 -146 -120 11 3 85 32 165 62 206 79 641 223 673 223
3 0 7 -36 9 -81 l3 -81 86 66 85 66 99 -40 c54 -22 100 -39 101 -37 2 2 -8 45
-22 96 -14 51 -24 94 -22 96 9 7 689 135 720 135 4 0 4 -39 1 -87 l-6 -88 34
26 c19 14 60 45 92 69 l58 44 100 -41 c59 -24 99 -36 99 -29 0 7 -11 49 -24
95 -17 58 -21 83 -13 86 7 2 92 24 189 49 97 26 233 64 302 85 l126 39 0 -59
c0 -32 3 -59 6 -59 3 0 42 29 87 64 l82 64 99 -40 c54 -21 100 -37 102 -36 1
2 -8 41 -22 88 -13 46 -24 89 -24 95 0 5 44 31 98 57 53 25 140 72 192 103 93
55 273 185 266 192 -2 2 -43 -15 -92 -38 -106 -49 -373 -159 -386 -159 -5 0 3
16 18 35 l26 35 -88 0 c-49 0 -99 3 -111 6 -14 4 -40 35 -69 83 -26 42 -53 84
-60 95 -11 16 -16 5 -44 -85z"/>
<path d="M2604 5651 c3 -4 -5 -13 -17 -18 -12 -6 -68 -42 -123 -80 -81 -56
-105 -68 -120 -61 -11 5 -4 -4 15 -21 105 -93 433 -209 808 -287 98 -20 189
-44 202 -53 22 -17 23 -22 22 -134 -1 -64 1 -117 4 -117 3 0 42 27 85 60 43
33 84 60 89 60 6 0 52 -16 101 -36 50 -20 93 -35 95 -32 3 2 -5 37 -16 77 -11
40 -19 74 -17 76 3 3 672 -70 724 -80 l30 -5 -4 -110 c-3 -61 -1 -110 3 -110
4 0 44 29 90 65 l83 64 98 -39 c53 -22 99 -38 102 -36 2 3 -3 28 -12 57 -8 29
-14 55 -12 56 4 4 389 -64 549 -97 80 -16 148 -30 152 -30 4 0 4 -36 1 -80 -4
-44 -5 -80 -1 -80 3 0 42 27 86 61 l81 61 60 -17 c33 -9 79 -25 102 -34 22
-10 46 -16 53 -14 17 6 199 -64 279 -108 171 -94 238 -208 190 -324 -8 -19
-13 -35 -10 -35 3 0 38 22 78 49 333 225 217 430 -350 617 -90 30 -169 54
-176 54 -7 0 -19 4 -27 9 -10 7 -3 23 33 72 25 35 46 67 46 71 0 4 -47 8 -105
8 l-104 0 -58 95 c-32 52 -60 95 -63 95 -3 0 -20 -49 -39 -109 l-34 -109 -45
-13 c-41 -11 -72 -8 -341 36 -163 27 -298 50 -300 52 -2 1 6 15 18 31 l21 30
-31 6 c-18 3 -66 6 -108 6 l-76 0 -59 97 -60 97 -34 -104 c-19 -58 -36 -106
-37 -108 -2 -2 -305 32 -550 63 -66 8 -126 15 -134 15 -8 0 -11 6 -7 15 4 12
-3 15 -37 15 -23 0 -72 3 -109 6 l-68 7 -56 93 c-31 52 -58 94 -60 94 -2 0
-15 -38 -30 -85 -14 -47 -28 -85 -30 -85 -16 0 -240 46 -316 66 -206 51 -411
136 -488 201 -28 23 -46 30 -36 14z"/>
<path d="M6280 4199 c-256 -120 -621 -241 -944 -314 l-29 -6 26 35 c15 19 27
37 27 40 0 3 -48 6 -107 6 l-108 0 -58 96 c-33 52 -61 94 -63 91 -2 -2 -19
-51 -37 -108 l-32 -104 -105 -34 -104 -33 44 -38 c42 -36 43 -37 19 -43 -74
-19 -836 -110 -872 -105 -18 3 -18 4 3 31 l21 27 -83 1 c-135 2 -134 1 -200
109 -32 52 -58 92 -58 90 0 -3 -17 -54 -38 -114 l-37 -110 -95 -29 c-52 -16
-97 -31 -100 -34 -3 -2 3 -10 13 -17 25 -19 21 -26 -13 -26 -31 0 -885 -86
-959 -96 l-44 -7 21 35 c12 20 22 38 22 41 0 4 -48 8 -107 9 l-107 3 -55 92
c-31 51 -59 89 -62 85 -4 -4 -21 -53 -38 -108 l-31 -102 -105 -32 -105 -33 38
-33 c33 -29 35 -33 15 -34 -37 0 -283 -59 -398 -94 -223 -69 -364 -138 -480
-235 -33 -28 -87 -69 -119 -92 -136 -96 -196 -172 -196 -247 0 -98 64 -163
245 -252 141 -68 282 -115 530 -176 178 -43 562 -116 789 -150 l117 -18 -3
-108 c-2 -59 -1 -108 2 -108 3 0 43 29 90 64 l84 64 51 -20 c27 -11 72 -29 98
-39 26 -10 49 -19 51 -19 2 0 -2 25 -11 56 -8 31 -13 58 -11 59 2 2 73 -5 158
-16 85 -11 369 -42 630 -69 261 -28 490 -53 509 -56 l33 -5 -7 -101 c-6 -84
-4 -99 7 -91 8 4 49 35 92 67 l77 60 101 -41 100 -41 -6 31 c-3 18 -9 45 -12
60 -6 27 -6 28 32 22 31 -4 671 -65 1094 -103 l75 -7 -2 -103 c-1 -56 2 -102
5 -102 4 0 44 29 90 64 l84 64 95 -39 c53 -21 99 -37 101 -34 3 3 -2 30 -10
60 -18 66 -44 62 228 35 452 -46 992 -121 1058 -146 14 -5 15 -23 9 -127 l-6
-122 34 26 c19 14 60 45 92 69 l58 44 101 -41 100 -41 -7 31 c-4 18 -9 42 -12
54 -3 13 -1 23 5 23 23 0 221 -74 276 -103 84 -45 163 -119 178 -169 19 -65
-7 -138 -81 -222 -19 -22 -12 -18 26 13 203 166 230 313 81 446 -60 53 -249
149 -373 189 -44 15 -86 29 -93 31 -9 3 0 22 28 59 22 31 40 57 40 60 0 3 -48
7 -107 8 l-107 3 -55 92 c-31 51 -58 92 -62 93 -3 0 -21 -48 -39 -106 -19 -59
-40 -108 -46 -111 -6 -2 -98 12 -205 32 -222 41 -589 94 -859 125 -102 12
-193 25 -203 28 -17 7 -17 9 3 35 12 16 20 30 18 32 -2 2 -51 8 -108 12 l-105
8 -55 92 c-30 51 -57 92 -60 93 -3 0 -20 -50 -39 -110 -30 -95 -38 -111 -59
-117 -13 -3 -148 4 -300 15 -153 12 -414 31 -582 43 -168 12 -307 23 -309 25
-2 2 10 24 27 48 18 24 32 47 32 50 0 3 -47 6 -104 6 l-104 0 -59 95 c-32 52
-61 95 -64 95 -3 0 -21 -48 -40 -107 l-34 -107 -55 -19 c-46 -15 -73 -18 -160
-13 -166 8 -1052 111 -1113 129 -5 1 6 21 22 45 17 23 31 46 31 52 0 6 -41 10
-104 10 l-104 0 -59 95 c-32 52 -61 91 -65 87 -3 -4 -21 -53 -38 -110 -27 -88
-35 -103 -56 -108 -31 -8 -125 7 -364 56 -618 128 -992 283 -1069 443 -25 51
-27 114 -6 144 24 35 389 147 682 209 106 22 344 64 367 64 5 0 7 -40 4 -90
-2 -49 -3 -90 0 -90 2 0 38 26 80 58 42 32 82 61 88 65 5 3 54 -12 108 -34 54
-21 99 -39 101 -39 2 0 -8 39 -21 87 -13 48 -23 88 -21 89 6 5 445 47 762 74
198 16 384 31 413 34 l53 5 -3 -90 c-2 -49 0 -89 3 -89 3 0 44 29 90 63 l84
64 94 -39 c52 -21 98 -37 102 -36 3 2 -4 38 -16 81 -12 42 -20 77 -16 77 64 0
731 92 941 130 62 11 115 20 116 20 2 0 4 -33 6 -74 l3 -75 86 65 87 65 98
-40 c55 -21 100 -38 102 -36 1 1 -6 36 -18 76 -11 40 -20 79 -20 85 0 6 25 17
57 23 100 23 374 111 503 162 148 59 265 120 375 195 84 56 187 144 170 143
-5 0 -39 -14 -75 -30z"/>
</g>
</svg>
